<svg width="24" height="24" viewBox="0 0 24 24" fill="none" xmlns="http://www.w3.org/2000/svg">
<path d="M16.5303 18.5303C16.2374 18.8232 15.7626 18.8232 15.4697 18.5303C15.1768 18.2374 15.1768 17.7626 15.4697 17.4697L16.5303 18.5303ZM19 15L19.5303 14.4697C19.8232 14.7626 19.8232 15.2374 19.5303 15.5303L19 15ZM15.4697 12.5303C15.1768 12.2374 15.1768 11.7626 15.4697 11.4697C15.7626 11.1768 16.2374 11.1768 16.5303 11.4697L15.4697 12.5303ZM19 6.25C19.4142 6.25 19.75 6.58579 19.75 7C19.75 7.41421 19.4142 7.75 19 7.75V6.25ZM16 18L15.4697 17.4697L18.4697 14.4697L19 15L19.5303 15.5303L16.5303 18.5303L16 18ZM19 15L18.4697 15.5303L15.4697 12.5303L16 12L16.5303 11.4697L19.5303 14.4697L19 15ZM19 15V15.75H8V15V14.25H19V15ZM4 11H3.25C3.25 8.37665 5.37665 6.25 8 6.25V7V7.75C6.20507 7.75 4.75 9.20507 4.75 11H4ZM8 15V15.75C5.37665 15.75 3.25 13.6234 3.25 11H4H4.75C4.75 12.7949 6.20507 14.25 8 14.25V15ZM19 7V7.75H8V7V6.25H19V7Z" fill="#787878"/>
</svg>
