<svg width="88" height="15" viewBox="0 0 88 15" fill="none" xmlns="http://www.w3.org/2000/svg">
<path d="M3.89638 3.91272H0.214891L0.748707 1.11479H11.3882L10.8544 3.91272H7.1729L5.20331 14H1.92678L3.89638 3.91272ZM12.6353 1.11479H21.7102L21.158 3.91272H15.378L14.9547 6.04798H19.5197L18.9675 8.84592H14.4024L13.9606 11.2021H19.9615L19.4093 14H10.1319L12.6353 1.11479ZM27.3465 14.1473C26.1561 14.1473 25.1069 13.9018 24.1988 13.411C23.303 12.9078 22.6096 12.2267 22.1187 11.3677C21.6279 10.5087 21.3824 9.5454 21.3824 8.47777C21.3824 7.01744 21.7138 5.72279 22.3764 4.5938C23.0391 3.45254 23.9595 2.56284 25.1376 1.92472C26.3279 1.28659 27.6839 0.967531 29.2056 0.967531C30.2855 0.967531 31.2366 1.17615 32.0588 1.59338C32.8932 1.99835 33.5252 2.56898 33.9547 3.30528C34.3965 4.0293 34.5867 4.85764 34.5254 5.79028H31.0832C31.1077 5.38532 31.0157 5.02944 30.8071 4.72265C30.6107 4.41586 30.3223 4.1827 29.9419 4.02317C29.5738 3.85136 29.1504 3.76546 28.6718 3.76546C27.8619 3.76546 27.1562 3.99249 26.5549 4.44654C25.9536 4.90059 25.4934 5.48349 25.1744 6.19524C24.8553 6.907 24.6958 7.64943 24.6958 8.42254C24.6958 9.07294 24.8185 9.61903 25.0639 10.0608C25.3094 10.4903 25.6468 10.8155 26.0763 11.0364C26.5058 11.245 26.9906 11.3493 27.5305 11.3493C28.0091 11.3493 28.4448 11.2757 28.8375 11.1284C29.2301 10.9689 29.5676 10.7357 29.8499 10.429C30.1444 10.1222 30.3714 9.75402 30.5309 9.32451H33.8627C33.6418 10.3062 33.2307 11.1591 32.6294 11.8831C32.0281 12.6072 31.2734 13.1655 30.3653 13.5582C29.4572 13.9509 28.4509 14.1473 27.3465 14.1473ZM44.9264 1.11479H48.2029L45.6995 14H42.423L44.9264 1.11479ZM36.9928 1.11479H40.2693L37.7659 14H34.4894L36.9928 1.11479ZM39.036 6.04798H44.2638L43.7115 8.84592H38.4838L39.036 6.04798Z" fill="#00DAC8"/>
<path d="M53.3845 14.1473C52.3782 14.1473 51.5131 13.9693 50.7891 13.6134C50.065 13.2453 49.5005 12.7299 49.0956 12.0672C48.7029 11.4046 48.482 10.6253 48.4329 9.72947H50.292C50.3657 10.5885 50.6602 11.2573 51.1756 11.7359C51.691 12.2145 52.4273 12.4538 53.3845 12.4538C54.2312 12.4538 54.9 12.2881 55.3909 11.9568C55.894 11.6132 56.1456 11.1039 56.1456 10.429C56.1456 9.97491 56.0045 9.60676 55.7222 9.32451C55.4523 9.04226 55.1148 8.82751 54.7098 8.68025C54.3049 8.53299 53.7465 8.37346 53.0348 8.20166C52.1389 7.98077 51.4088 7.75988 50.8443 7.53899C50.292 7.30583 49.8135 6.94381 49.4085 6.45295C49.0158 5.96208 48.8195 5.30555 48.8195 4.48335C48.8195 3.78387 49.0035 3.17029 49.3717 2.64261C49.7521 2.11493 50.2798 1.70383 50.9547 1.40931C51.6297 1.11479 52.3905 0.967531 53.2372 0.967531C54.1085 0.967531 54.8816 1.12706 55.5566 1.44612C56.2315 1.76519 56.7653 2.21924 57.158 2.80827C57.563 3.38504 57.79 4.06612 57.8391 4.8515H55.9799C55.9186 4.18883 55.6425 3.66115 55.1516 3.26846C54.6607 2.8635 54.0226 2.66101 53.2372 2.66101C52.4641 2.66101 51.8567 2.82668 51.4149 3.15802C50.9731 3.47708 50.7522 3.91272 50.7522 4.46494C50.7522 4.91899 50.8872 5.28101 51.1572 5.55098C51.4272 5.82096 51.7646 6.02958 52.1696 6.17684C52.5746 6.31182 53.1268 6.45908 53.8263 6.61862C54.7467 6.82723 55.4829 7.04812 56.0352 7.28128C56.5997 7.50217 57.0844 7.86419 57.4894 8.36732C57.8943 8.85819 58.0968 9.53926 58.0968 10.4105C58.0968 11.1837 57.8943 11.8525 57.4894 12.417C57.0967 12.9692 56.5444 13.3987 55.8327 13.7055C55.1209 14 54.3049 14.1473 53.3845 14.1473ZM60.2788 1.11479H62.635L66.7398 11.3861L70.8447 1.11479H73.2008V14H71.3601V4.40972L67.5129 14H65.9667L62.1011 4.40972V14H60.2788V1.11479ZM81.5086 14.1473C80.4287 14.1473 79.4286 13.8957 78.5082 13.3926C77.5878 12.8894 76.8454 12.1408 76.2809 11.1468C75.7287 10.1528 75.4526 8.95636 75.4526 7.55739C75.4526 6.14616 75.7348 4.94967 76.2993 3.96794C76.8761 2.97394 77.6431 2.22537 78.6002 1.72224C79.5574 1.2191 80.6128 0.967531 81.7663 0.967531C82.7849 0.967531 83.6991 1.15161 84.509 1.51975C85.3312 1.8879 85.9939 2.40331 86.497 3.06598C87.0002 3.71638 87.3008 4.45881 87.399 5.29328H85.3374C85.2515 4.77787 85.0429 4.31768 84.7115 3.91272C84.3925 3.50776 83.9752 3.20097 83.4598 2.99235C82.9567 2.77146 82.386 2.66101 81.7479 2.66101C80.9012 2.66101 80.1526 2.85736 79.5022 3.25005C78.8518 3.63047 78.3364 4.18883 77.956 4.92513C77.5878 5.66143 77.4038 6.53885 77.4038 7.55739C77.4038 8.60048 77.5878 9.49018 77.956 10.2265C78.3364 10.9505 78.8518 11.5027 79.5022 11.8831C80.1649 12.2636 80.9196 12.4538 81.7663 12.4538C82.4413 12.4538 83.061 12.3372 83.6255 12.104C84.2022 11.8586 84.6563 11.5334 84.9876 11.1284C85.3312 10.7112 85.503 10.2572 85.503 9.76629C85.503 9.44723 85.4294 9.20793 85.2822 9.0484C85.1349 8.88887 84.914 8.8091 84.6195 8.8091H81.84V7.26288H85.2085C85.6503 7.26288 86.0307 7.34878 86.3498 7.52058C86.6688 7.69238 86.9143 7.93782 87.0861 8.25688C87.2579 8.57594 87.3438 8.95636 87.3438 9.39814V14H85.5951V12.1777C85.3865 12.5335 85.0858 12.8649 84.6931 13.1717C84.3004 13.4662 83.828 13.7055 83.2757 13.8896C82.7358 14.0614 82.1467 14.1473 81.5086 14.1473Z" fill="black"/>
</svg>
